<?xml version="1.0" encoding="utf-8"?>
<!-- Generator: Avocode 2.4.3-3630f5a - http://avocode.com -->
<svg height="29" width="29" xmlns:xlink="http://www.w3.org/1999/xlink" xmlns="http://www.w3.org/2000/svg" viewBox="0 0 29 29">
    <path fill="#000000" fill-rule="evenodd" d="M 14.5 0.01 C 6.5 0.01 0.01 6.5 0.01 14.5 C 0.01 22.5 6.5 28.99 14.5 28.99 C 22.5 28.99 28.99 22.5 28.99 14.5 C 28.99 6.5 22.5 0.01 14.5 0.01 Z M 14.5 27.18 C 7.5 27.18 1.82 21.5 1.82 14.5 C 1.82 7.5 7.5 1.82 14.5 1.82 C 21.5 1.82 27.18 7.5 27.18 14.5 C 27.18 21.5 21.5 27.18 14.5 27.18 Z M 19.93 13.59 C 19.93 13.59 15.4 13.59 15.4 13.59 C 15.4 13.59 15.4 9.07 15.4 9.07 C 15.4 8.57 15 8.16 14.5 8.16 C 14 8.16 13.59 8.57 13.59 9.07 C 13.59 9.07 13.59 13.59 13.59 13.59 C 13.59 13.59 9.07 13.59 9.07 13.59 C 8.57 13.59 8.16 14 8.16 14.5 C 8.16 15 8.57 15.41 9.07 15.41 C 9.07 15.41 13.59 15.41 13.59 15.41 C 13.59 15.41 13.59 19.93 13.59 19.93 C 13.59 20.43 14 20.84 14.5 20.84 C 15 20.84 15.4 20.43 15.4 19.93 C 15.4 19.93 15.4 15.41 15.4 15.41 C 15.4 15.41 19.93 15.41 19.93 15.41 C 20.43 15.41 20.84 15 20.84 14.5 C 20.84 14 20.43 13.59 19.93 13.59 Z" />
</svg>