<?xml version="1.0" encoding="utf-8"?>
<!-- Generator: Avocode 2.4.3-3630f5a - http://avocode.com -->
<svg height="23" width="17" xmlns:xlink="http://www.w3.org/1999/xlink" xmlns="http://www.w3.org/2000/svg" viewBox="0 0 17 23">
    <path fill="#0d0d0d" fill-rule="evenodd" d="M 17.01 19.74 C 17.01 19.39 17.01 19.68 17.01 19.74 Z M 8.51 22.66 C 1.27 22.66 0.02 20.14 0.02 20.14 C 0.02 19.85 0.02 19.68 0.02 19.59 C 0.02 19.64 0.02 19.62 0.03 19.2 C 0.12 14.09 0.85 12.61 6.05 11.67 C 6.05 11.67 6.79 12.62 8.51 12.62 C 10.24 12.62 10.98 11.67 10.98 11.67 C 16.23 12.62 16.92 14.12 17 19.37 C 17.01 19.71 17.01 19.77 17.01 19.74 C 17.01 19.82 17.01 19.95 17.01 20.14 C 17.01 20.14 15.76 22.66 8.51 22.66 Z M 0.02 19.59 C 0.01 19.54 0.01 19.41 0.02 19.59 Z M 8.51 11.26 C 6.03 11.26 4.01 8.81 4.01 5.8 C 4.01 2.78 4.67 0.34 8.51 0.34 C 12.35 0.34 13.01 2.78 13.01 5.8 C 13.01 8.81 11 11.26 8.51 11.26 Z" />
</svg>