<?xml version="1.0" encoding="utf-8"?>
<!-- Generator: Avocode 2.4.3-3630f5a - http://avocode.com -->
<svg height="14" width="13" xmlns:xlink="http://www.w3.org/1999/xlink" xmlns="http://www.w3.org/2000/svg" viewBox="0 0 13 14">
    <path fill="#000000" fill-rule="evenodd" d="M 6.5 13.99 C 7.27 13.99 7.9 13.36 7.9 12.59 C 7.9 12.59 5.1 12.59 5.1 12.59 C 5.1 13.36 5.73 13.99 6.5 13.99 Z M 11.04 9.8 C 11.04 9.8 11.04 5.97 11.04 5.97 C 11.04 3.81 9.57 2.06 7.55 1.58 C 7.55 1.58 7.55 1.09 7.55 1.09 C 7.55 0.53 7.06 0.04 6.5 0.04 C 5.94 0.04 5.45 0.53 5.45 1.09 C 5.45 1.09 5.45 1.58 5.45 1.58 C 3.43 2.06 1.96 3.81 1.96 5.97 C 1.96 5.97 1.96 9.8 1.96 9.8 C 1.96 9.8 0.57 11.2 0.57 11.2 C 0.57 11.2 0.57 11.9 0.57 11.9 C 0.57 11.9 12.43 11.9 12.43 11.9 C 12.43 11.9 12.43 11.2 12.43 11.2 C 12.43 11.2 11.04 9.8 11.04 9.8 Z M 9.64 10.5 C 9.64 10.5 3.36 10.5 3.36 10.5 C 3.36 10.5 3.36 5.97 3.36 5.97 C 3.36 4.23 4.76 2.83 6.5 2.83 C 8.24 2.83 9.64 4.23 9.64 5.97 C 9.64 5.97 9.64 10.5 9.64 10.5 Z" />
</svg>